<?xml version="1.0" encoding="utf-8"?>
<svg xmlns="http://www.w3.org/2000/svg" viewBox="101.666 0 98.4726 98.3677" width="98.4726px" height="98.3677px">
  <g fill-rule="nonzero" transform="matrix(1.3108700513839722, 0, 0, 1.3108700513839722, 101.66596984863278, 0.0000180000024556648)" style="">
    <path d="m37.56 0c-20.72 0-37.56 16.77-37.56 37.48 0 20.79 16.84 37.56 37.56 37.56 20.71 0 37.56-16.77 37.56-37.56 0-20.71-16.85-37.48-37.56-37.48z" fill="#ffffff"/>
    <path d="m37.56 62.52c13.81 0 24.96-11.23 24.96-25.04 0-13.73-11.15-24.96-24.96-24.96s-24.96 11.23-24.96 24.96c0 13.81 11.15 25.04 24.96 25.04zm36.57-25.04c0 20.26-16.39 36.65-36.57 36.65s-36.57-16.39-36.57-36.65c0-20.18 16.39-36.57 36.57-36.57s36.57 16.39 36.57 36.57z" fill="#002147"/>
    <path d="m59.49 56.22 1.82-.68 1.89-.68-.38 1.89-.3 1.98-1.52-1.29zm.75-1.36 1.9.68 1.82.68-1.52 1.22-1.51 1.29-.31-1.97zm1.45-.53.98 1.67.99 1.74h-3.87l.99-1.74zm-51.07 1.89 1.82-.68 1.9-.68-.38 1.89-.3 1.98-1.52-1.29zm.76-1.36 1.82.68 1.9.68-1.52 1.22-1.52 1.29-.3-1.97zm1.44-.53.99 1.67.99 1.74h-3.87l.98-1.74z" fill="#daa520"/>
    <path d="m10.62 48.18c-.3-.76-.91-.99-1.44-.76-.38.15-.61.53-.61.91v.46c0 .38.08.6-.15.68-.15.08-.3-.08-.45-.3-.08-.23-.08-.46 0-.76l-.61-.15c-.15.38-.15.76 0 1.13.3.69.91.92 1.37.76.45-.22.6-.6.6-.98v-.46c0-.3 0-.53.23-.61.15-.07.38 0 .46.31.15.3.15.61 0 .91l.6.23c.23-.46.15-.91 0-1.37zm-1.14-3.26-.45-2.05-.61.08.31 1.36-.76.23-.31-1.14-.6.15.3 1.06-.68.16-.31-1.29-.6.15.45 2.05zm-.75-4.4-.08-.69h-.91l-.53-.3 1.36-.91-.07-.83-1.9 1.36-1.44-.91.08.84 1.44.83v.08l-1.37.07.08.76zm0-5.92c.07-.91-.54-1.59-1.6-1.67s-1.74.46-1.82 1.37c-.07.91.53 1.59 1.59 1.66 1.07.08 1.75-.53 1.83-1.36zm-.61-.08c-.08.46-.53.69-1.14.69-.68-.08-1.06-.38-1.06-.84.07-.45.45-.76 1.14-.68.68.07 1.06.38 1.06.83zm1.21-3.71.53-1.98-.6-.15-.38 1.22-2.58-.69-.23.69zm0-5.47c-.23-.23-.53-.45-.83-.68.38.08.76.15 1.06.15l.3.08-.22.68zm1.06 1.82.31-.68-.61-.53.38-.91.84.07.3-.68-3.42-.45-.38.83zm2.21-4.47.45-.69-1.21-.76.6-.91 1.22.76.38-.68-2.81-1.82-.38.68 1.06.69-.6.98-1.14-.68-.38.61zm5.31-6.53.53-.53-1.75-1.97.69-.61-.38-.53-1.98 1.74.38.46.69-.61zm2.96-2.43.6-.38-1.89-2.73-.61.46zm2.73-1.67.6-.3-.53-1.06c-.15-.38-.45-.76-.6-1.06.22.15.45.38.6.53l1.52 1.06.76-.38-1.52-2.96-.68.3.53 1.07c.23.38.46.76.68 1.06h-.07c-.15-.15-.38-.38-.61-.53l-1.52-1.06-.68.37zm5.99-2.35c.46-.15.84-.45.99-.76l-.46-1.44-1.14.3.16.61.53-.15.15.53c-.08.15-.15.23-.3.23-.61.15-.99-.08-1.22-.76-.15-.68.08-1.14.53-1.29.31-.08.46-.08.69.08l.22-.61c-.22-.15-.6-.23-1.06-.08-.91.23-1.44 1.07-1.14 2.13.38 1.06 1.22 1.44 2.05 1.21zm4.86-.98c.45-.08.83-.31.98-.54l-.15-1.51-1.21.15.07.61.53-.08.08.61c-.08.07-.23.07-.3.07-.69.08-.99-.22-1.06-.91-.08-.68.22-1.14.68-1.21.3 0 .53.07.68.15l.38-.46c-.3-.22-.68-.37-1.14-.3-.91.08-1.52.84-1.36 1.9.07 1.14.91 1.67 1.82 1.52zm3.41-.23h.76l.08-3.34h-.76zm5.77.68.76.15.76-3.26-.76-.15zm3.11.76 1.9.76.22-.61-1.21-.45.99-2.51-.76-.3zm3.94 1.67.61.3.61-1.06c.15-.3.38-.76.53-1.06l-.23.83-.22 1.37.37.22 1.07-.84.68-.68v.07c-.23.23-.53.69-.68.99l-.61 1.06.53.31 1.75-2.89-.76-.38-1.22.99c-.15.15-.3.3-.45.45.07-.22.07-.45.15-.6l.3-1.6-.76-.37zm5.62 3.87c.68.53 1.29.45 2.05-.38l1.21-1.37-.6-.45-1.22 1.44c-.38.46-.68.46-.99.23-.3-.23-.3-.53.08-.99l1.29-1.44-.61-.53-1.21 1.44c-.68.83-.61 1.44 0 2.05zm4.48 4.55 1.21 1.75.53-.38-.83-1.14.6-.38.69.91.53-.38-.68-.91.53-.38.76 1.06.53-.38-1.22-1.66zm2.35 3.72.38.68.76-.38.68.15-.91 1.29.38.76 1.21-1.97 1.67.3-.38-.75-1.67-.23 1.22-.61-.31-.68zm2.2 5.61c.23.84 1.06 1.29 2.12.99 1.07-.3 1.45-1.06 1.22-1.9-.23-.91-.99-1.29-2.05-1.06-1.06.3-1.52 1.06-1.29 1.97zm.61-.15c-.08-.45.22-.83.91-1.06.6-.15 1.06 0 1.21.46.08.45-.23.83-.83.98-.69.15-1.14 0-1.29-.38zm.3 3.8.08.75 1.21-.15c.38-.07.83-.15 1.14-.22-.23.15-.46.22-.69.37l-1.51 1.07.07.76 3.34-.38-.07-.69-1.22.15c-.38 0-.83.16-1.14.23l.69-.45 1.51-1.07-.07-.75zm.23 6.37c-.08.91.53 1.59 1.59 1.67 1.06.07 1.75-.46 1.82-1.37.08-.91-.45-1.59-1.59-1.67-1.06-.07-1.75.46-1.82 1.37zm.6.08c.08-.46.54-.69 1.14-.69.68.08 1.06.38 1.06.84-.07.45-.45.68-1.13.68-.69-.08-1.07-.38-1.07-.83zm-1.06 3.71-.15.69 1.21.22c.31.08.91.16 1.22.23l-.91.08-1.37.15-.07.38 1.13.76.76.45v.08c-.3-.15-.83-.31-1.13-.38l-1.22-.3-.15.68 3.26.76.15-.84-1.29-.83c-.15-.15-.38-.23-.53-.31.23-.07.38-.07.61-.07l1.59-.15.15-.84zm-1.59 5.31-.23.69 3.11 1.21.23-.76zm-46.36 15.33.76.61c.83.61 1.67.53 2.35-.38s.45-1.75-.38-2.35l-.76-.53zm.98 0 1.22-1.74.15.07c.46.38.61.76.15 1.44-.45.61-.98.61-1.44.31zm4.25 3.19.84.38.91-1.22c.15-.22.3-.45.45-.68-.07.23-.15.53-.22.76l-.31 1.52.84.38 1.97-2.74-.68-.37-.84 1.36c-.22.3-.38.61-.6.91.07-.38.15-.68.3-1.06l.3-1.52-.6-.3-.99 1.29c-.23.23-.38.53-.61.83.08-.3.23-.68.31-.98l.45-1.52-.76-.3zm6 2.2.76.23.76-3.27-.76-.22zm4.02.83.68.08.08-1.22c.07-.37 0-.91 0-1.21l.23.84.37 1.36h.46l.53-1.21.38-.91c-.08.38-.15.91-.23 1.21l-.07 1.22.68.07.23-3.34-.84-.07-.6 1.44c-.08.23-.16.45-.23.61-.08-.23-.08-.38-.15-.61l-.38-1.52-.91-.08zm7.81.08c.84-.08 1.22-.61 1.07-1.67l-.16-1.82-.75.07.22 1.9c.08.61-.15.84-.45.91-.38 0-.61-.15-.68-.76l-.23-1.89-.76.07.23 1.82c.07 1.07.6 1.52 1.51 1.37zm4.56-.84 1.97-.6-.15-.61-1.29.38-.69-2.58-.75.15zm5-1.74.69-.3-.46-1.07.08-2.42-.76.3.08.83v.84c-.23-.23-.38-.38-.54-.61l-.6-.53-.76.3 1.82 1.6zm3.8-3.95c-.08-.38-.23-.68-.38-1.06h.08l.75.76.23.23-.53.38zm-.08 2.05.69-.38-.31-.83.84-.53.6.53.69-.38-2.66-2.28-.76.53z" fill="#fff"/>
    <path d="m49.93 25.42h-3.57c-3.95 0-7.06 1.36-8.5 2.81-.07.07 1.82-1.52 6.68-1.52h5.39zm-.84-2.13c-.91 0-1.9 0-2.81 0-4.47.08-6.9 1.75-8.34 3.11-.08.16 2.43-1.82 6.45-1.82h4.7zm-23.9 2.13h3.57c3.94 0 7.05 1.36 8.5 2.81.07.07-1.83-1.52-6.68-1.52h-5.39zm.84-2.13h2.8c4.48.08 6.91 1.75 8.35 3.11.07.16-2.43-1.82-6.45-1.82h-4.7zm24.58 8.73v11c.07-.07.07-.15.15-.15 0-.08 0-.15.08-.23 0-.07 0-.07 0-.15l.07-.08c.53-1.51.84-3.18.84-4.85 0-1.9-.38-3.72-.99-5.39-.08 0-.15-.07-.15-.15zm-26.1 11v-10.92c-.08 0-.08.07-.15.15 0 0 0 .07-.08.15v.15s-.08.08-.08.08c-.53 1.51-.83 3.18-.83 4.93 0 1.82.38 3.64 1.06 5.31 0 .08.08.08.08.15zm13.05-17.68h.68c.76-.6 1.67-1.14 2.58-1.59-1.36-.3-2.28-.46-3.26-.46-.99 0-1.9.16-3.26.46.91.45 1.82.99 2.58 1.59zm-3.8 23.75-1.82-.76c-.38-.3-.45-.22-1.06-.22l-2.58-.01c.15.16.23.31.38.38.23.16.23.23.46.38 1.06.76 2.12 1.44 3.33 1.9 1.6.61 3.27.99 5.09.99 1.74 0 3.41-.31 5.01-.91.15-.08.3-.16.45-.23 1.29-.61 1.75-.84 2.88-1.75.31-.15.76-.45.92-.76h-2.51c-1.44 0-.61 0-1.97.61-2.73 1.14-5.77 1.29-8.58.38zm-5.61-4.55h2.66c-2.05-.38-2.43-.68-2.66-2.66zm18.82 0h-2.66c2.05-.38 2.43-.68 2.66-2.66z" fill="#002147"/>
    <path d="m28.15 44.54h2.66c-2.05-.38-2.43-.68-2.66-2.66zm18.82 0h-2.66c2.05-.38 2.43-.68 2.66-2.66zm-18.82-13.05h2.66c-2.05.3-2.43.68-2.66 2.65zm18.82 0h-2.66c2.05.3 2.43.68 2.66 2.65z" fill="#002147"/>
    <path d="m37.56 22c-.61 0-1.06-.53-1.06-1.06 0-.3.07-.53.22-.76.16-.15.31-.3.61-.3.08 0 .15-.08.23-.08.53 0 1.06.53 1.06 1.14 0 .53-.53 1.06-1.06 1.06zm1.97-1.06c0-1.14-.91-1.97-1.97-1.97-1.14 0-1.97.83-1.97 1.97 0 1.06.83 1.97 1.97 1.97 1.06 0 1.97-.91 1.97-1.97zm-17.53 16.62c0 .61-.45 1.06-1.06 1.06-.3 0-.53-.08-.68-.23-.23-.15-.3-.38-.38-.6 0-.08 0-.16 0-.23 0-.61.46-1.06 1.06-1.06.61 0 1.06.45 1.06 1.06zm-1.06-1.97c-1.06 0-1.97.91-1.97 1.97s.91 1.97 1.97 1.97 1.97-.91 1.97-1.97-.91-1.97-1.97-1.97zm16.62 17.52c.61 0 1.06.46 1.06 1.06 0 .23-.08.46-.23.69-.15.15-.3.3-.6.3-.08.08-.16.08-.23.08-.53 0-1.06-.53-1.06-1.07 0-.6.53-1.06 1.06-1.06zm-1.97 1.06c0 1.07.91 1.98 1.97 1.98 1.14 0 1.97-.91 1.97-1.98 0-1.13-.83-1.97-1.97-1.97-1.06 0-1.97.84-1.97 1.97zm18.59-15.55c-.61 0-1.07-.46-1.07-1.06 0-.3.08-.53.23-.68.15-.23.38-.31.61-.38h.23c.6 0 1.06.45 1.06 1.06 0 .6-.46 1.06-1.06 1.06zm1.97-1.06c0-1.06-.91-1.97-1.97-1.97-1.07 0-1.98.91-1.98 1.97s.91 1.97 1.98 1.97c1.06 0 1.97-.91 1.97-1.97z" fill="#daa520"/>
    <path d="m37.56 29.74c2.05-1.59 4.7-2.12 7.66-2.12h4.71v19.8h-10.32v-2.05h8.12v-.07-14.57h-2.96c-3.72 0-5.85 2.28-7.21 5.69z" fill="#002147"/>
    <path d="m30.35 30.73h-2.96v14.57h3.87c3.57 0 5.62-1.52 6.3-4.33v6.45h-12.37v-19.8h4.7c2.96 0 5.62.53 7.67 2.12v6.68c-1.37-3.41-3.49-5.69-7.21-5.69z" fill="#daa520"/>
  </g>
</svg>